<svg width="700" height="487" viewBox="0 0 700 487" fill="none" xmlns="http://www.w3.org/2000/svg">
<path d="M672 302L537 335L504.5 221.5L618.5 162L672 302Z" fill="#B50807"/>
<path d="M390 128.5H314.5L232.5 31.5L346.5 0H357.5L460.5 31.5L390 128.5Z" fill="#CF3128"/>
<path d="M606.5 139.5L499 198.5L412.5 139.5L493.5 48L606.5 139.5Z" fill="#C71616"/>
<path d="M92.5 139.5L201 200L287.5 139.5L206.5 46.5L92.5 139.5Z" fill="#C61617"/>
<path d="M162.5 356.5L151.5 486.5L0 487L21 324L162.5 356.5Z" fill="#9D0101"/>
<path d="M26.5 302.5L163 335L195.5 221L81 161.5L26.5 302.5Z" fill="#B50907"/>
<path d="M699.5 486.5H547.5L536.5 356.5L677.5 324.5L699.5 486.5Z" fill="#9C0100"/>
<path d="M350 455.375C422.004 455.375 480.375 397.004 480.375 325C480.375 252.996 422.004 194.625 350 194.625C277.996 194.625 219.625 252.996 219.625 325C219.625 397.004 277.996 455.375 350 455.375Z" fill="#E44D44"/>
<path d="M350 325L396.562 259.812H303.438L350 325ZM350 325L396.562 390.188H303.438L350 325Z" stroke="white" stroke-width="5" stroke-linejoin="round"/>
</svg>
